<svg width="25" height="25" viewBox="0 0 25 25" fill="none" xmlns="http://www.w3.org/2000/svg">
<path fill-rule="evenodd" clip-rule="evenodd" d="M16.5 9.75C16.5 13.4779 13.4779 16.5 9.75 16.5C6.02208 16.5 3 13.4779 3 9.75C3 6.02208 6.02208 3 9.75 3C13.4779 3 16.5 6.02208 16.5 9.75ZM15.2689 16.8598C13.7448 18.0445 11.8297 18.75 9.75 18.75C4.77943 18.75 0.75 14.7205 0.75 9.75C0.75 4.77943 4.77943 0.75 9.75 0.75C14.7205 0.75 18.75 4.77943 18.75 9.75C18.75 11.8297 18.0445 13.7448 16.8598 15.2688L24.0456 22.4545L22.4545 24.0454L15.2689 16.8598Z" fill="white"/>
</svg>
